# xmcd
# 
# Track frame offsets:
#     150
#     18425
#     32913
#     48988
#     68750
#     92738
#     110588
#     131013
#     150263
#     166038
# 
# Disc length: 2500
# 
# Revision: 2
# Processed by: cddbd v1.5.2PL0 Copyright (c) Steve Scherf et al.
# Submitted via: fre:ac v1.0.27
# 
DISCID=7509c20a
DTITLE=Various Artist - 東南西北調
DYEAR=1993
DGENRE=POP
TTITLE0=黃安 - 樣樣紅
TTITLE1=左宏元 - 東南西北調
TTITLE2=高勝美 - 倩女幽魂
TTITLE3=黃安 - 新鴛鴦蝴蝶夢
TTITLE4=孟庭葦 - 誰的眼淚在飛
TTITLE5=高勝美 - 玫瑰愛情
TTITLE6=裘海正 - 你說你比較習慣一個人
TTITLE7=張真 - 新正氣歌
TTITLE8=黃安 - 陪你到天涯
TTITLE9=李翊君 - 多情人都把靈魂給了誰
EXTD=
EXTT0=
EXTT1=
EXTT2=
EXTT3=
EXTT4=
EXTT5=
EXTT6=
EXTT7=
EXTT8=
EXTT9=
PLAYORDER=
